<svg width="120" height="30" viewBox="0 0 120 30" fill="none" xmlns="http://www.w3.org/2000/svg">
<g filter="url(#filter0_i_133079_3246)">
<path d="M26.0193 7.98075C25.5415 4.53098 22.581 1.875 19 1.875C15.419 1.875 12.4585 4.53098 11.9808 7.98075C8.53098 8.4585 5.875 11.419 5.875 15C5.875 18.581 8.53098 21.5415 11.9808 22.0193C12.459 25.4685 15.419 28.125 19 28.125C22.581 28.125 25.5415 25.469 26.0193 22.0193C29.4685 21.541 32.125 18.581 32.125 15C32.125 11.419 29.469 8.4585 26.0193 7.98075ZM19 5.67337C20.6527 5.67337 22.0203 6.89243 22.254 8.48055C22.2771 8.63805 22.2896 8.7987 22.2896 8.9625C22.2896 10.6152 21.0706 11.9828 19.4825 12.2164C19.3444 11.8936 19.1827 11.5828 19.0005 11.2867C18.2356 10.0461 17.0995 9.0591 15.7466 8.48055C15.9797 6.89243 17.3473 5.67337 19.0005 5.67337H19ZM12.4805 18.254C10.8924 18.0208 9.67337 16.6532 9.67337 15C9.67337 13.3468 10.8924 11.9797 12.4805 11.746C12.638 11.7229 12.7987 11.7103 12.9625 11.7103C14.6152 11.7103 15.9828 12.9294 16.2164 14.5175C15.8936 14.6556 15.5828 14.8173 15.2867 14.9995C14.0461 15.7644 13.0591 16.9005 12.4805 18.2534V18.254ZM19 24.3266C17.3473 24.3266 15.9797 23.1076 15.746 21.5194C15.7229 21.3619 15.7103 21.2013 15.7103 21.0375C15.7103 19.3848 16.9294 18.0172 18.5175 17.7835C18.6556 18.1064 18.8173 18.4172 18.9995 18.7133C19.7644 19.9539 20.9005 20.9409 22.2534 21.5194C22.0203 23.1076 20.6527 24.3266 18.9995 24.3266H19ZM25.5194 18.254C25.3619 18.2771 25.2013 18.2896 25.0375 18.2896C23.3848 18.2896 22.0172 17.0706 21.7835 15.4825C22.1064 15.3444 22.4172 15.1827 22.7133 15.0005C23.9539 14.2356 24.9409 13.0995 25.5194 11.7466C27.1076 11.9797 28.3266 13.3473 28.3266 15.0005C28.3266 16.6537 27.1076 18.0208 25.5194 18.2545V18.254Z" fill="#FDAD00"/>
</g>
<path d="M45.2375 26.384C43.7015 26.384 42.3042 26.1067 41.0455 25.552C39.8082 24.9973 38.8162 24.2187 38.0695 23.216C37.3228 22.2133 36.9495 21.0507 36.9495 19.728C36.9495 18.8107 37.1095 17.9787 37.4295 17.232C37.7495 16.4853 38.1868 15.824 38.7415 15.248C39.3175 14.672 40.0002 14.2347 40.7895 13.936C39.7868 13.488 38.9868 12.848 38.3895 12.016C37.8135 11.184 37.5255 10.2453 37.5255 9.2C37.5255 8.15467 37.8135 7.17333 38.3895 6.256C38.9655 5.33867 39.8188 4.60267 40.9495 4.048C42.1015 3.49333 43.5308 3.216 45.2375 3.216C46.9228 3.216 48.3308 3.49333 49.4615 4.048C50.6135 4.60267 51.4775 5.33867 52.0535 6.256C52.6295 7.17333 52.9175 8.15467 52.9175 9.2C52.9175 10.224 52.6188 11.1627 52.0215 12.016C51.4242 12.848 50.6348 13.488 49.6535 13.936C50.4428 14.256 51.1255 14.704 51.7015 15.28C52.2775 15.8347 52.7148 16.4853 53.0135 17.232C53.3335 17.9787 53.4935 18.8107 53.4935 19.728C53.4935 21.0507 53.1202 22.2133 52.3735 23.216C51.6482 24.2187 50.6562 24.9973 49.3975 25.552C48.1602 26.1067 46.7735 26.384 45.2375 26.384ZM45.2375 22.768C46.5602 22.768 47.5628 22.448 48.2455 21.808C48.9282 21.168 49.2695 20.3573 49.2695 19.376C49.2695 18.288 48.9068 17.4347 48.1815 16.816C47.4775 16.176 46.4962 15.856 45.2375 15.856C43.9788 15.856 42.9868 16.176 42.2615 16.816C41.5362 17.4347 41.1735 18.288 41.1735 19.376C41.1735 20.3573 41.5148 21.168 42.1975 21.808C42.9015 22.448 43.9148 22.768 45.2375 22.768ZM45.2375 12.688C46.3255 12.688 47.1682 12.4107 47.7655 11.856C48.3842 11.3013 48.6935 10.5867 48.6935 9.712C48.6935 8.77333 48.3842 8.048 47.7655 7.536C47.1682 7.00267 46.3255 6.736 45.2375 6.736C44.1495 6.736 43.2962 7.00267 42.6775 7.536C42.0802 8.048 41.7815 8.784 41.7815 9.744C41.7815 10.5973 42.0802 11.3013 42.6775 11.856C43.2962 12.4107 44.1495 12.688 45.2375 12.688ZM65.4088 26.384C63.8728 26.384 62.4754 26.1067 61.2168 25.552C59.9794 24.9973 58.9874 24.2187 58.2408 23.216C57.4941 22.2133 57.1208 21.0507 57.1208 19.728C57.1208 18.8107 57.2808 17.9787 57.6008 17.232C57.9208 16.4853 58.3581 15.824 58.9128 15.248C59.4888 14.672 60.1714 14.2347 60.9608 13.936C59.9581 13.488 59.1581 12.848 58.5608 12.016C57.9848 11.184 57.6968 10.2453 57.6968 9.2C57.6968 8.15467 57.9848 7.17333 58.5608 6.256C59.1368 5.33867 59.9901 4.60267 61.1208 4.048C62.2728 3.49333 63.7021 3.216 65.4088 3.216C67.0941 3.216 68.5021 3.49333 69.6328 4.048C70.7848 4.60267 71.6488 5.33867 72.2248 6.256C72.8008 7.17333 73.0888 8.15467 73.0888 9.2C73.0888 10.224 72.7901 11.1627 72.1928 12.016C71.5954 12.848 70.8061 13.488 69.8248 13.936C70.6141 14.256 71.2968 14.704 71.8728 15.28C72.4488 15.8347 72.8861 16.4853 73.1848 17.232C73.5048 17.9787 73.6648 18.8107 73.6648 19.728C73.6648 21.0507 73.2914 22.2133 72.5448 23.216C71.8194 24.2187 70.8274 24.9973 69.5688 25.552C68.3314 26.1067 66.9448 26.384 65.4088 26.384ZM65.4088 22.768C66.7314 22.768 67.7341 22.448 68.4168 21.808C69.0994 21.168 69.4408 20.3573 69.4408 19.376C69.4408 18.288 69.0781 17.4347 68.3528 16.816C67.6488 16.176 66.6674 15.856 65.4088 15.856C64.1501 15.856 63.1581 16.176 62.4328 16.816C61.7074 17.4347 61.3448 18.288 61.3448 19.376C61.3448 20.3573 61.6861 21.168 62.3688 21.808C63.0728 22.448 64.0861 22.768 65.4088 22.768ZM65.4088 12.688C66.4968 12.688 67.3394 12.4107 67.9368 11.856C68.5554 11.3013 68.8648 10.5867 68.8648 9.712C68.8648 8.77333 68.5554 8.048 67.9368 7.536C67.3394 7.00267 66.4968 6.736 65.4088 6.736C64.3208 6.736 63.4674 7.00267 62.8488 7.536C62.2514 8.048 61.9528 8.784 61.9528 9.744C61.9528 10.5973 62.2514 11.3013 62.8488 11.856C63.4674 12.4107 64.3208 12.688 65.4088 12.688ZM85.58 26.384C84.044 26.384 82.6467 26.1067 81.388 25.552C80.1507 24.9973 79.1587 24.2187 78.412 23.216C77.6653 22.2133 77.292 21.0507 77.292 19.728C77.292 18.8107 77.452 17.9787 77.772 17.232C78.092 16.4853 78.5293 15.824 79.084 15.248C79.66 14.672 80.3427 14.2347 81.132 13.936C80.1293 13.488 79.3293 12.848 78.732 12.016C78.156 11.184 77.868 10.2453 77.868 9.2C77.868 8.15467 78.156 7.17333 78.732 6.256C79.308 5.33867 80.1613 4.60267 81.292 4.048C82.444 3.49333 83.8733 3.216 85.58 3.216C87.2653 3.216 88.6733 3.49333 89.804 4.048C90.956 4.60267 91.82 5.33867 92.396 6.256C92.972 7.17333 93.26 8.15467 93.26 9.2C93.26 10.224 92.9613 11.1627 92.364 12.016C91.7667 12.848 90.9773 13.488 89.996 13.936C90.7853 14.256 91.468 14.704 92.044 15.28C92.62 15.8347 93.0573 16.4853 93.356 17.232C93.676 17.9787 93.836 18.8107 93.836 19.728C93.836 21.0507 93.4627 22.2133 92.716 23.216C91.9907 24.2187 90.9987 24.9973 89.74 25.552C88.5027 26.1067 87.116 26.384 85.58 26.384ZM85.58 22.768C86.9027 22.768 87.9053 22.448 88.588 21.808C89.2707 21.168 89.612 20.3573 89.612 19.376C89.612 18.288 89.2493 17.4347 88.524 16.816C87.82 16.176 86.8387 15.856 85.58 15.856C84.3213 15.856 83.3293 16.176 82.604 16.816C81.8787 17.4347 81.516 18.288 81.516 19.376C81.516 20.3573 81.8573 21.168 82.54 21.808C83.244 22.448 84.2573 22.768 85.58 22.768ZM85.58 12.688C86.668 12.688 87.5107 12.4107 88.108 11.856C88.7267 11.3013 89.036 10.5867 89.036 9.712C89.036 8.77333 88.7267 8.048 88.108 7.536C87.5107 7.00267 86.668 6.736 85.58 6.736C84.492 6.736 83.6387 7.00267 83.02 7.536C82.4227 8.048 82.124 8.784 82.124 9.744C82.124 10.5973 82.4227 11.3013 83.02 11.856C83.6387 12.4107 84.492 12.688 85.58 12.688ZM105.751 26.384C104.215 26.384 102.818 26.1067 101.559 25.552C100.322 24.9973 99.3299 24.2187 98.5832 23.216C97.8366 22.2133 97.4632 21.0507 97.4632 19.728C97.4632 18.8107 97.6232 17.9787 97.9432 17.232C98.2632 16.4853 98.7006 15.824 99.2552 15.248C99.8312 14.672 100.514 14.2347 101.303 13.936C100.301 13.488 99.5006 12.848 98.9032 12.016C98.3272 11.184 98.0392 10.2453 98.0392 9.2C98.0392 8.15467 98.3272 7.17333 98.9032 6.256C99.4792 5.33867 100.333 4.60267 101.463 4.048C102.615 3.49333 104.045 3.216 105.751 3.216C107.437 3.216 108.845 3.49333 109.975 4.048C111.127 4.60267 111.991 5.33867 112.567 6.256C113.143 7.17333 113.431 8.15467 113.431 9.2C113.431 10.224 113.133 11.1627 112.535 12.016C111.938 12.848 111.149 13.488 110.167 13.936C110.957 14.256 111.639 14.704 112.215 15.28C112.791 15.8347 113.229 16.4853 113.527 17.232C113.847 17.9787 114.007 18.8107 114.007 19.728C114.007 21.0507 113.634 22.2133 112.887 23.216C112.162 24.2187 111.17 24.9973 109.911 25.552C108.674 26.1067 107.287 26.384 105.751 26.384ZM105.751 22.768C107.074 22.768 108.077 22.448 108.759 21.808C109.442 21.168 109.783 20.3573 109.783 19.376C109.783 18.288 109.421 17.4347 108.695 16.816C107.991 16.176 107.01 15.856 105.751 15.856C104.493 15.856 103.501 16.176 102.775 16.816C102.05 17.4347 101.687 18.288 101.687 19.376C101.687 20.3573 102.029 21.168 102.711 21.808C103.415 22.448 104.429 22.768 105.751 22.768ZM105.751 12.688C106.839 12.688 107.682 12.4107 108.279 11.856C108.898 11.3013 109.207 10.5867 109.207 9.712C109.207 8.77333 108.898 8.048 108.279 7.536C107.682 7.00267 106.839 6.736 105.751 6.736C104.663 6.736 103.81 7.00267 103.191 7.536C102.594 8.048 102.295 8.784 102.295 9.744C102.295 10.5973 102.594 11.3013 103.191 11.856C103.81 12.4107 104.663 12.688 105.751 12.688Z" fill="white"/>
<defs>
<filter id="filter0_i_133079_3246" x="5.875" y="1.875" width="26.25" height="29.25" filterUnits="userSpaceOnUse" color-interpolation-filters="sRGB">
<feFlood flood-opacity="0" result="BackgroundImageFix"/>
<feBlend mode="normal" in="SourceGraphic" in2="BackgroundImageFix" result="shape"/>
<feColorMatrix in="SourceAlpha" type="matrix" values="0 0 0 0 0 0 0 0 0 0 0 0 0 0 0 0 0 0 127 0" result="hardAlpha"/>
<feOffset dy="3"/>
<feGaussianBlur stdDeviation="2"/>
<feComposite in2="hardAlpha" operator="arithmetic" k2="-1" k3="1"/>
<feColorMatrix type="matrix" values="0 0 0 0 0.892372 0 0 0 0 0.564938 0 0 0 0 0.0737889 0 0 0 0.3 0"/>
<feBlend mode="normal" in2="shape" result="effect1_innerShadow_133079_3246"/>
</filter>
</defs>
</svg>
