<svg width="198" height="30" viewBox="0 0 198 30" fill="none" xmlns="http://www.w3.org/2000/svg">
<g filter="url(#filter0_i_133099_665)">
<path d="M26.0193 7.98075C25.5415 4.53098 22.581 1.875 19 1.875C15.419 1.875 12.4585 4.53098 11.9807 7.98075C8.53098 8.4585 5.875 11.419 5.875 15C5.875 18.581 8.53098 21.5415 11.9807 22.0193C12.459 25.4685 15.419 28.125 19 28.125C22.581 28.125 25.5415 25.469 26.0193 22.0193C29.4685 21.541 32.125 18.581 32.125 15C32.125 11.419 29.469 8.4585 26.0193 7.98075ZM19 5.67337C20.6527 5.67337 22.0203 6.89242 22.254 8.48055C22.2771 8.63805 22.2896 8.7987 22.2896 8.9625C22.2896 10.6152 21.0706 11.9828 19.4825 12.2164C19.3444 11.8936 19.1827 11.5828 19.0005 11.2867C18.2356 10.0461 17.0995 9.0591 15.7466 8.48055C15.9797 6.89242 17.3473 5.67337 19.0005 5.67337H19ZM12.4805 18.254C10.8924 18.0209 9.67337 16.6532 9.67337 15C9.67337 13.3468 10.8924 11.9797 12.4805 11.746C12.638 11.7229 12.7987 11.7103 12.9625 11.7103C14.6152 11.7103 15.9828 12.9294 16.2164 14.5175C15.8936 14.6556 15.5828 14.8173 15.2867 14.9995C14.0461 15.7644 13.0591 16.9005 12.4805 18.2534V18.254ZM19 24.3266C17.3473 24.3266 15.9797 23.1076 15.746 21.5194C15.7229 21.3619 15.7103 21.2013 15.7103 21.0375C15.7103 19.3848 16.9294 18.0172 18.5175 17.7835C18.6556 18.1064 18.8173 18.4172 18.9995 18.7133C19.7644 19.9539 20.9005 20.9409 22.2534 21.5194C22.0203 23.1076 20.6527 24.3266 18.9995 24.3266H19ZM25.5194 18.254C25.3619 18.2771 25.2013 18.2896 25.0375 18.2896C23.3848 18.2896 22.0172 17.0706 21.7835 15.4825C22.1064 15.3444 22.4172 15.1827 22.7133 15.0005C23.9539 14.2356 24.9409 13.0995 25.5194 11.7466C27.1076 11.9797 28.3266 13.3473 28.3266 15.0005C28.3266 16.6537 27.1076 18.0208 25.5194 18.2545V18.254Z" fill="#FDAD00"/>
</g>
<path d="M46.2544 26.384C44.7184 26.384 43.321 26.1067 42.0624 25.552C40.825 24.9973 39.833 24.2187 39.0864 23.216C38.3397 22.2133 37.9664 21.0507 37.9664 19.728C37.9664 18.8107 38.1264 17.9787 38.4464 17.232C38.7664 16.4853 39.2037 15.824 39.7584 15.248C40.3344 14.672 41.017 14.2347 41.8064 13.936C40.8037 13.488 40.0037 12.848 39.4064 12.016C38.8304 11.184 38.5424 10.2453 38.5424 9.2C38.5424 8.15467 38.8304 7.17333 39.4064 6.256C39.9824 5.33867 40.8357 4.60267 41.9664 4.048C43.1184 3.49333 44.5477 3.216 46.2544 3.216C47.9397 3.216 49.3477 3.49333 50.4784 4.048C51.6304 4.60267 52.4944 5.33867 53.0704 6.256C53.6464 7.17333 53.9344 8.15467 53.9344 9.2C53.9344 10.224 53.6357 11.1627 53.0384 12.016C52.441 12.848 51.6517 13.488 50.6704 13.936C51.4597 14.256 52.1424 14.704 52.7184 15.28C53.2944 15.8347 53.7317 16.4853 54.0304 17.232C54.3504 17.9787 54.5104 18.8107 54.5104 19.728C54.5104 21.0507 54.137 22.2133 53.3904 23.216C52.665 24.2187 51.673 24.9973 50.4144 25.552C49.177 26.1067 47.7904 26.384 46.2544 26.384ZM46.2544 22.768C47.577 22.768 48.5797 22.448 49.2624 21.808C49.945 21.168 50.2864 20.3573 50.2864 19.376C50.2864 18.288 49.9237 17.4347 49.1984 16.816C48.4944 16.176 47.513 15.856 46.2544 15.856C44.9957 15.856 44.0037 16.176 43.2784 16.816C42.553 17.4347 42.1904 18.288 42.1904 19.376C42.1904 20.3573 42.5317 21.168 43.2144 21.808C43.9184 22.448 44.9317 22.768 46.2544 22.768ZM46.2544 12.688C47.3424 12.688 48.185 12.4107 48.7824 11.856C49.401 11.3013 49.7104 10.5867 49.7104 9.712C49.7104 8.77333 49.401 8.048 48.7824 7.536C48.185 7.00267 47.3424 6.736 46.2544 6.736C45.1664 6.736 44.313 7.00267 43.6944 7.536C43.097 8.048 42.7984 8.784 42.7984 9.744C42.7984 10.5973 43.097 11.3013 43.6944 11.856C44.313 12.4107 45.1664 12.688 46.2544 12.688ZM66.4256 26.384C64.8896 26.384 63.4923 26.1067 62.2336 25.552C60.9963 24.9973 60.0043 24.2187 59.2576 23.216C58.511 22.2133 58.1376 21.0507 58.1376 19.728C58.1376 18.8107 58.2976 17.9787 58.6176 17.232C58.9376 16.4853 59.375 15.824 59.9296 15.248C60.5056 14.672 61.1883 14.2347 61.9776 13.936C60.975 13.488 60.175 12.848 59.5776 12.016C59.0016 11.184 58.7136 10.2453 58.7136 9.2C58.7136 8.15467 59.0016 7.17333 59.5776 6.256C60.1536 5.33867 61.007 4.60267 62.1376 4.048C63.2896 3.49333 64.719 3.216 66.4256 3.216C68.111 3.216 69.519 3.49333 70.6496 4.048C71.8016 4.60267 72.6656 5.33867 73.2416 6.256C73.8176 7.17333 74.1056 8.15467 74.1056 9.2C74.1056 10.224 73.807 11.1627 73.2096 12.016C72.6123 12.848 71.823 13.488 70.8416 13.936C71.631 14.256 72.3136 14.704 72.8896 15.28C73.4656 15.8347 73.903 16.4853 74.2016 17.232C74.5216 17.9787 74.6816 18.8107 74.6816 19.728C74.6816 21.0507 74.3083 22.2133 73.5616 23.216C72.8363 24.2187 71.8443 24.9973 70.5856 25.552C69.3483 26.1067 67.9616 26.384 66.4256 26.384ZM66.4256 22.768C67.7483 22.768 68.751 22.448 69.4336 21.808C70.1163 21.168 70.4576 20.3573 70.4576 19.376C70.4576 18.288 70.095 17.4347 69.3696 16.816C68.6656 16.176 67.6843 15.856 66.4256 15.856C65.167 15.856 64.175 16.176 63.4496 16.816C62.7243 17.4347 62.3616 18.288 62.3616 19.376C62.3616 20.3573 62.703 21.168 63.3856 21.808C64.0896 22.448 65.103 22.768 66.4256 22.768ZM66.4256 12.688C67.5136 12.688 68.3563 12.4107 68.9536 11.856C69.5723 11.3013 69.8816 10.5867 69.8816 9.712C69.8816 8.77333 69.5723 8.048 68.9536 7.536C68.3563 7.00267 67.5136 6.736 66.4256 6.736C65.3376 6.736 64.4843 7.00267 63.8656 7.536C63.2683 8.048 62.9696 8.784 62.9696 9.744C62.9696 10.5973 63.2683 11.3013 63.8656 11.856C64.4843 12.4107 65.3376 12.688 66.4256 12.688ZM86.5969 26.384C85.0609 26.384 83.6635 26.1067 82.4049 25.552C81.1675 24.9973 80.1755 24.2187 79.4289 23.216C78.6822 22.2133 78.3089 21.0507 78.3089 19.728C78.3089 18.8107 78.4689 17.9787 78.7889 17.232C79.1089 16.4853 79.5462 15.824 80.1009 15.248C80.6769 14.672 81.3595 14.2347 82.1489 13.936C81.1462 13.488 80.3462 12.848 79.7489 12.016C79.1729 11.184 78.8849 10.2453 78.8849 9.2C78.8849 8.15467 79.1729 7.17333 79.7489 6.256C80.3249 5.33867 81.1782 4.60267 82.3089 4.048C83.4609 3.49333 84.8902 3.216 86.5969 3.216C88.2822 3.216 89.6902 3.49333 90.8209 4.048C91.9729 4.60267 92.8369 5.33867 93.4129 6.256C93.9889 7.17333 94.2769 8.15467 94.2769 9.2C94.2769 10.224 93.9782 11.1627 93.3809 12.016C92.7835 12.848 91.9942 13.488 91.0129 13.936C91.8022 14.256 92.4849 14.704 93.0609 15.28C93.6369 15.8347 94.0742 16.4853 94.3729 17.232C94.6929 17.9787 94.8529 18.8107 94.8529 19.728C94.8529 21.0507 94.4795 22.2133 93.7329 23.216C93.0075 24.2187 92.0155 24.9973 90.7569 25.552C89.5195 26.1067 88.1329 26.384 86.5969 26.384ZM86.5969 22.768C87.9195 22.768 88.9222 22.448 89.6049 21.808C90.2875 21.168 90.6289 20.3573 90.6289 19.376C90.6289 18.288 90.2662 17.4347 89.5409 16.816C88.8369 16.176 87.8555 15.856 86.5969 15.856C85.3382 15.856 84.3462 16.176 83.6209 16.816C82.8955 17.4347 82.5329 18.288 82.5329 19.376C82.5329 20.3573 82.8742 21.168 83.5569 21.808C84.2609 22.448 85.2742 22.768 86.5969 22.768ZM86.5969 12.688C87.6849 12.688 88.5275 12.4107 89.1249 11.856C89.7435 11.3013 90.0529 10.5867 90.0529 9.712C90.0529 8.77333 89.7435 8.048 89.1249 7.536C88.5275 7.00267 87.6849 6.736 86.5969 6.736C85.5089 6.736 84.6555 7.00267 84.0369 7.536C83.4395 8.048 83.1409 8.784 83.1409 9.744C83.1409 10.5973 83.4395 11.3013 84.0369 11.856C84.6555 12.4107 85.5089 12.688 86.5969 12.688ZM106.768 26.384C105.232 26.384 103.835 26.1067 102.576 25.552C101.339 24.9973 100.347 24.2187 99.6001 23.216C98.8535 22.2133 98.4801 21.0507 98.4801 19.728C98.4801 18.8107 98.6401 17.9787 98.9601 17.232C99.2801 16.4853 99.7175 15.824 100.272 15.248C100.848 14.672 101.531 14.2347 102.32 13.936C101.317 13.488 100.517 12.848 99.9201 12.016C99.3441 11.184 99.0561 10.2453 99.0561 9.2C99.0561 8.15467 99.3441 7.17333 99.9201 6.256C100.496 5.33867 101.349 4.60267 102.48 4.048C103.632 3.49333 105.061 3.216 106.768 3.216C108.453 3.216 109.861 3.49333 110.992 4.048C112.144 4.60267 113.008 5.33867 113.584 6.256C114.16 7.17333 114.448 8.15467 114.448 9.2C114.448 10.224 114.149 11.1627 113.552 12.016C112.955 12.848 112.165 13.488 111.184 13.936C111.973 14.256 112.656 14.704 113.232 15.28C113.808 15.8347 114.245 16.4853 114.544 17.232C114.864 17.9787 115.024 18.8107 115.024 19.728C115.024 21.0507 114.651 22.2133 113.904 23.216C113.179 24.2187 112.187 24.9973 110.928 25.552C109.691 26.1067 108.304 26.384 106.768 26.384ZM106.768 22.768C108.091 22.768 109.093 22.448 109.776 21.808C110.459 21.168 110.8 20.3573 110.8 19.376C110.8 18.288 110.437 17.4347 109.712 16.816C109.008 16.176 108.027 15.856 106.768 15.856C105.509 15.856 104.517 16.176 103.792 16.816C103.067 17.4347 102.704 18.288 102.704 19.376C102.704 20.3573 103.045 21.168 103.728 21.808C104.432 22.448 105.445 22.768 106.768 22.768ZM106.768 12.688C107.856 12.688 108.699 12.4107 109.296 11.856C109.915 11.3013 110.224 10.5867 110.224 9.712C110.224 8.77333 109.915 8.048 109.296 7.536C108.699 7.00267 107.856 6.736 106.768 6.736C105.68 6.736 104.827 7.00267 104.208 7.536C103.611 8.048 103.312 8.784 103.312 9.744C103.312 10.5973 103.611 11.3013 104.208 11.856C104.827 12.4107 105.68 12.688 106.768 12.688ZM121.051 26.16C120.262 26.16 119.622 25.9253 119.131 25.456C118.641 24.9653 118.395 24.3787 118.395 23.696C118.395 22.992 118.641 22.3947 119.131 21.904C119.622 21.4133 120.262 21.168 121.051 21.168C121.819 21.168 122.449 21.4133 122.939 21.904C123.43 22.3947 123.675 22.992 123.675 23.696C123.675 24.3787 123.43 24.9653 122.939 25.456C122.449 25.9253 121.819 26.16 121.051 26.16ZM135.074 26.384C133.41 26.384 131.949 26.032 130.69 25.328C129.453 24.6027 128.482 23.6213 127.778 22.384C127.074 21.1253 126.722 19.6853 126.722 18.064C126.722 16.4427 127.074 15.0133 127.778 13.776C128.503 12.5173 129.495 11.536 130.754 10.832C132.013 10.1067 133.453 9.744 135.074 9.744C137.122 9.744 138.85 10.2773 140.258 11.344C141.666 12.4107 142.551 13.8827 142.914 15.76H138.338C138.167 15.0133 137.783 14.4373 137.186 14.032C136.589 13.6053 135.874 13.392 135.042 13.392C134.295 13.392 133.623 13.584 133.026 13.968C132.45 14.3307 131.991 14.864 131.65 15.568C131.309 16.2507 131.138 17.0827 131.138 18.064C131.138 18.7893 131.234 19.44 131.426 20.016C131.618 20.5707 131.885 21.0507 132.226 21.456C132.589 21.8613 133.005 22.1707 133.474 22.384C133.943 22.5973 134.466 22.704 135.042 22.704C135.597 22.704 136.098 22.6187 136.546 22.448C136.994 22.256 137.378 21.9893 137.698 21.648C138.018 21.2853 138.231 20.8587 138.338 20.368H142.914C142.551 22.2027 141.666 23.664 140.258 24.752C138.85 25.84 137.122 26.384 135.074 26.384ZM154.085 26.384C152.549 26.384 151.162 26.032 149.925 25.328C148.687 24.624 147.706 23.6427 146.981 22.384C146.277 21.1253 145.925 19.6853 145.925 18.064C145.925 16.4213 146.287 14.9813 147.013 13.744C147.738 12.4853 148.719 11.504 149.957 10.8C151.194 10.096 152.57 9.744 154.085 9.744C155.621 9.744 157.007 10.096 158.245 10.8C159.482 11.504 160.453 12.4853 161.157 13.744C161.882 14.9813 162.245 16.4213 162.245 18.064C162.245 19.7067 161.882 21.1573 161.157 22.416C160.431 23.6533 159.45 24.624 158.213 25.328C156.997 26.032 155.621 26.384 154.085 26.384ZM154.085 22.704C154.767 22.704 155.386 22.5333 155.941 22.192C156.517 21.8507 156.975 21.3387 157.317 20.656C157.679 19.952 157.861 19.088 157.861 18.064C157.861 17.04 157.679 16.1867 157.317 15.504C156.975 14.8 156.527 14.2773 155.973 13.936C155.418 13.5947 154.799 13.424 154.117 13.424C153.434 13.424 152.805 13.5947 152.229 13.936C151.653 14.2773 151.194 14.8 150.853 15.504C150.511 16.1867 150.341 17.04 150.341 18.064C150.341 19.088 150.511 19.952 150.853 20.656C151.194 21.3387 151.642 21.8507 152.197 22.192C152.773 22.5333 153.402 22.704 154.085 22.704ZM165.732 26V10.128H169.54L169.892 12.528H169.956C170.468 11.632 171.151 10.9493 172.004 10.48C172.857 9.98933 173.849 9.744 174.98 9.744C175.791 9.744 176.516 9.85067 177.156 10.064C177.817 10.2773 178.404 10.608 178.916 11.056C179.428 11.4827 179.855 12.0373 180.196 12.72H180.26C180.857 11.7813 181.615 11.056 182.532 10.544C183.471 10.0107 184.569 9.744 185.828 9.744C187.129 9.744 188.239 10.032 189.156 10.608C190.095 11.1627 190.809 11.984 191.3 13.072C191.791 14.16 192.036 15.504 192.036 17.104V26H187.748V17.488C187.748 16.1653 187.492 15.152 186.98 14.448C186.468 13.744 185.668 13.392 184.58 13.392C183.876 13.392 183.257 13.5627 182.724 13.904C182.191 14.224 181.775 14.704 181.476 15.344C181.199 15.9627 181.06 16.7307 181.06 17.648V26H176.74V17.488C176.74 16.1653 176.484 15.152 175.972 14.448C175.46 13.744 174.66 13.392 173.572 13.392C172.911 13.392 172.313 13.5733 171.78 13.936C171.247 14.2773 170.82 14.7787 170.5 15.44C170.201 16.08 170.052 16.8693 170.052 17.808V26H165.732Z" fill="white"/>
<defs>
<filter id="filter0_i_133099_665" x="5.875" y="1.875" width="26.25" height="29.25" filterUnits="userSpaceOnUse" color-interpolation-filters="sRGB">
<feFlood flood-opacity="0" result="BackgroundImageFix"/>
<feBlend mode="normal" in="SourceGraphic" in2="BackgroundImageFix" result="shape"/>
<feColorMatrix in="SourceAlpha" type="matrix" values="0 0 0 0 0 0 0 0 0 0 0 0 0 0 0 0 0 0 127 0" result="hardAlpha"/>
<feOffset dy="3"/>
<feGaussianBlur stdDeviation="2"/>
<feComposite in2="hardAlpha" operator="arithmetic" k2="-1" k3="1"/>
<feColorMatrix type="matrix" values="0 0 0 0 0.892372 0 0 0 0 0.564938 0 0 0 0 0.0737889 0 0 0 0.3 0"/>
<feBlend mode="normal" in2="shape" result="effect1_innerShadow_133099_665"/>
</filter>
</defs>
</svg>
