<svg width="24" height="24" viewBox="0 0 24 24" fill="none" xmlns="http://www.w3.org/2000/svg">
<path fill-rule="evenodd" clip-rule="evenodd" d="M11 9.00391V13.9991C11 14.5514 11.4477 14.9991 12 14.9991C12.5523 14.9991 13 14.5514 13 13.9991V9.00391C15.0723 9.02395 16.6733 9.10456 17.8537 9.19511C19.4638 9.31862 20.6985 10.5338 20.8382 12.1425C20.9277 13.1747 21 14.4785 21 15.9991C21 17.5198 20.9277 18.8236 20.8382 19.8557C20.6985 21.4645 19.4638 22.6797 17.8537 22.8032C16.4899 22.9078 14.5647 22.9991 12 22.9991C9.43529 22.9991 7.51009 22.9078 6.14628 22.8032C4.53621 22.6797 3.30146 21.4645 3.16184 19.8557C3.07226 18.8236 3 17.5198 3 15.9991C3 14.4785 3.07226 13.1747 3.16184 12.1425C3.30146 10.5338 4.53621 9.31862 6.14628 9.19511C7.32672 9.10456 8.92774 9.02395 11 9.00391Z" fill="#777E91"/>
<path fill-rule="evenodd" clip-rule="evenodd" d="M9.20711 6.20711C8.81658 6.59763 8.18342 6.59763 7.79289 6.20711C7.40237 5.81658 7.40237 5.18342 7.79289 4.79289L11.2929 1.29289C11.6834 0.902369 12.3166 0.902369 12.7071 1.29289L16.2071 4.79289C16.5976 5.18342 16.5976 5.81658 16.2071 6.20711C15.8166 6.59763 15.1834 6.59763 14.7929 6.20711L13 4.41421V9H11V4.41421L9.20711 6.20711Z" fill="#777E91"/>
</svg>
